<svg xmlns="http://www.w3.org/2000/svg" xmlns:xlink="http://www.w3.org/1999/xlink" version="1.1" x="0px" y="0px" viewBox="0 0 48 60" style="enable-background:new 0 0 48 48;" xml:space="preserve"><path d="M41,27.5h-5.5V27c0-5.38-3.71-9.89-8.7-11.14c2.19-1.05,3.7-3.28,3.7-5.86c0-3.58-2.92-6.5-6.5-6.5s-6.5,2.92-6.5,6.5  c0,2.58,1.52,4.81,3.7,5.86c-4.99,1.25-8.7,5.77-8.7,11.14v0.5H7c-0.28,0-0.5,0.22-0.5,0.5v4c0,0.28,0.22,0.5,0.5,0.5h2.58  l1.93,11.58c0.04,0.24,0.25,0.42,0.49,0.42h23c0.23,0,0.43-0.16,0.49-0.38l2.91-11.62H41c0.28,0,0.5-0.22,0.5-0.5v-4  C41.5,27.72,41.28,27.5,41,27.5z M18.5,10c0-3.03,2.47-5.5,5.5-5.5s5.5,2.47,5.5,5.5s-2.47,5.5-5.5,5.5S18.5,13.03,18.5,10z   M13.5,27c0-5.79,4.71-10.5,10.5-10.5S34.5,21.21,34.5,27v0.5h-21V27z M34.61,43.5H12.42l-1.83-11h26.77L34.61,43.5z M40.5,31.5h-33  v-3H13h22h5.5V31.5z"/><text x="0" y="63" fill="#000000" font-size="5px" font-weight="bold" font-family="'Helvetica Neue', Helvetica, Arial-Unicode, Arial, Sans-serif">Created by barurezeki</text><text x="0" y="68" fill="#000000" font-size="5px" font-weight="bold" font-family="'Helvetica Neue', Helvetica, Arial-Unicode, Arial, Sans-serif">from the Noun Project</text></svg>